<svg version="1.1" id="Layer_1" xmlns="http://www.w3.org/2000/svg" xmlns:xlink="http://www.w3.org/1999/xlink" x="0px" y="0px"
	 width="48px" height="34.371px" viewBox="0 0 48 34.371" enable-background="new 0 0 48 34.371" xml:space="preserve" fill="white">
	<g>
		<path d="M44.683,13.749H3.437C1.539,13.749,0,15.287,0,17.186c0,1.899,1.539,3.437,3.437,3.437h41.246
				 c1.898,0,3.437-1.539,3.437-3.437C48.12,15.287,46.581,13.749,44.683,13.749z M3.437,6.874h41.246c1.898,0,3.437-1.539,3.437-3.437
				 C48.12,1.539,46.581,0,44.683,0H3.437C1.539,0,0,1.539,0,3.437C0,5.336,1.539,6.874,3.437,6.874z M44.683,27.497H3.437
				 C1.539,27.497,0,29.036,0,30.934c0,1.899,1.539,3.437,3.437,3.437h41.246c1.898,0,3.437-1.539,3.437-3.437
				 C48.12,29.036,46.581,27.497,44.683,27.497z"/>
	</g>
</svg>
