<?xml version="1.0" encoding="utf-8"?>
<!-- Generator: Adobe Illustrator 21.0.2, SVG Export Plug-In . SVG Version: 6.00 Build 0)  -->
<svg version="1.1" id="Layer_1" xmlns="http://www.w3.org/2000/svg" xmlns:xlink="http://www.w3.org/1999/xlink" x="0px" y="0px"
	 viewBox="0 0 47.9 46.2" style="enable-background:new 0 0 47.9 46.2;" xml:space="preserve">
<style type="text/css">
	.st0{fill:#FFFFFF;}
</style>
<path class="st0" d="M44.6,18.5h-3.9c-0.4-1.3-0.9-2.6-1.6-3.7l2.8-2.7c1.2-1.2,1.2-3.2,0-4.4l-2.3-2.2c-1.3-1.2-3.3-1.2-4.5,0
	l-2.9,2.7c-1.1-0.6-2.3-1.1-3.6-1.4V3.1c0-1.7-1.4-3.1-3.2-3.1h-3.2c-1.8,0-3.2,1.4-3.2,3.1v3.7c-1.3,0.4-2.6,0.9-3.7,1.5l-2.9-2.8
	c-1.3-1.2-3.3-1.2-4.5,0L5.7,7.7c-1.3,1.2-1.3,3.2,0,4.4l2.9,2.8c-0.6,1.1-1.1,2.3-1.5,3.6H3.2c-1.8,0-3.2,1.4-3.2,3.1v3.1
	c0,1.7,1.4,3.1,3.2,3.1h3.9c0.4,1.2,0.8,2.4,1.5,3.5L5.7,34c-1.3,1.2-1.3,3.2,0,4.4L8,40.6c1.3,1.2,3.3,1.2,4.5,0l2.8-2.7
	c1.2,0.7,2.5,1.2,3.9,1.6v3.7c0,1.7,1.4,3.1,3.2,3.1h3.2c1.8,0,3.2-1.4,3.2-3.1v-3.7c1.3-0.4,2.6-0.9,3.7-1.5l2.7,2.6
	c1.3,1.2,3.3,1.2,4.5,0l2.3-2.2c1.3-1.2,1.3-3.2,0-4.4l-2.7-2.6c0.6-1.1,1.2-2.3,1.5-3.6h3.9c1.8,0,3.2-1.4,3.2-3.1v-3.1
	C47.8,19.9,46.4,18.5,44.6,18.5L44.6,18.5z M23.9,32.4c-5.3,0-9.6-4.1-9.6-9.3s4.3-9.3,9.6-9.3s9.6,4.1,9.6,9.3S29.2,32.4,23.9,32.4
	z"/>
<path class="st0" d="M23.9,18.5c2.6,0,4.8,2.1,4.8,4.6s-2.1,4.6-4.8,4.6s-4.8-2.1-4.8-4.6S21.3,18.5,23.9,18.5z"/>
</svg>
