<?xml version="1.0" encoding="utf-8"?>
<!-- Generator: Adobe Illustrator 21.0.2, SVG Export Plug-In . SVG Version: 6.00 Build 0)  -->
<svg version="1.1" id="Layer_1" xmlns="http://www.w3.org/2000/svg" xmlns:xlink="http://www.w3.org/1999/xlink" x="0px" y="0px"
	 viewBox="0 0 512 512" style="enable-background:new 0 0 512 512;" xml:space="preserve">
<style type="text/css">
	.st0{fill:#55ACEE;}
	.st1{fill:#FFFFFF;}
</style>
<circle class="st0" cx="256" cy="256" r="256"/>
<path class="st1" d="M416,158.4c-11.5,5.1-24,8.5-37.6,10.1c13.6-8,24-20.8,28.8-35.7c-12.5,7.4-26.6,12.8-41.6,15.7
	c-11.8-12.5-28.8-20.5-48-20.5c-36.2,0-65.6,28.8-65.6,64.6c0,5.1,0.6,10.1,1.6,14.9c-54.4-2.9-102.9-28.5-135.2-67.7
	c-5.8,9.6-9,20.8-9,32.5c0,22.4,11.5,42.2,29.1,53.9c-10.7-0.5-20.8-3.2-29.6-8v0.6c0,31.4,22.7,57.6,52.8,63.5
	c-5.4,1.6-11.2,2.2-17.3,2.2c-4.3,0-8.3-0.6-12.3-1.6c8.3,25.9,32.5,44.8,61.3,45.1c-22.4,17.3-50.9,27.7-81.6,27.7
	c-5.3,0-10.6-0.3-15.7-1c29.1,18.2,63.7,28.8,100.8,28.8c120.8,0,186.9-98.4,186.9-184c0-2.6,0-5.4-0.3-8
	c12.8-9.3,24-20.8,32.8-33.6L416,158.4z"/>
</svg>
