<svg xmlns="http://www.w3.org/2000/svg" viewBox="0 0 68 68"><path fill="none" d="M8 51.1c-.3.1-.5.2-.7.3l.1.1.9.4v-1l-.3.2z"/><path fill="#FFF" d="M51.7 47.1l.9 3.3v.1c-.5 7-9.5 9.5-17.7 9.5-6.8 0-15.6-1.7-18.6-5.6-.9-1.1-1.2-2.4-.9-3.7.2-.8.5-2 .9-3.3l-8 3.6v1L30 61.8c1.2.7 2.4 1 3.6 1 2 0 3.5-.9 3.5-.9l.4-.2 23.2-9.4c.1 0 .2-.1.3-.1-.2-.3-.5-.6-.8-.9l-8.5-4.2z"/><path fill="#FFF" d="M33.3 51.2c7.1 0 13.2-1.7 16.4-4.6l-.7-2.3v-.1c-.7-2.6-1.3-4.6-1.7-6-.1.1-.1.2-.2.3-1.8 2-6 3.3-10.8 3.3-3.3 0-9.5-.6-15.4-4.6l-.9 3.2-1 3-.7 2.7c-.1.5.1.9.5 1.4 1.9 2.1 8 3.7 14.5 3.7zM44.3 27.3l-2.5-8.5c-1.3.8-4 2.1-7.4 2.1-2.7 0-5.4-.8-7.9-2.3-.8 2.6-1.7 5.3-2.5 8.1v.1c1 .8 5.8 3 11.4 3 3.5 0 6.5-.8 8.9-2.5z"/><path fill="#FF810A" d="M63.2 47.2l-.7-.4-12.8-6.4-3.6-12.3L43 17.3v-.1l-.9-3-3.6-12.3C37.9.4 35 0 33.6 0c-2.3 0-3.7.7-3.8 1.9 0 0-1.6 5.2-3.7 12.3-.3.9-.6 1.9-.9 2.8-.1.4-.2.8-.3 1.1-.4 1.1-.9 2.9-1.8 5.9v.1l-.8 2.5c-1.4 4.6-2.5 9.2-4 13.2l-.2 1.2-9.8 4.4-2.3 1c-2.7 1-4.1 2.6-4.3 4.5-.3 2.9 2.5 4.7 3.1 5.1l3.5 1.6 15.8 7.2 3.4 1.6c1.9 1.1 3.9 1.6 6 1.6 3.1 0 5.5-1.2 6-1.6l3.9-1.6 19-7.6c2.8-1 3.6-2.7 3.8-3.9.6-3.1-2.4-5.6-3-6.1zM24 26.7c.8-2.8 1.7-5.5 2.5-8.1 2.5 1.5 5.2 2.3 7.9 2.3 3.4 0 6.1-1.3 7.4-2.1l2.5 8.5c-2.4 1.7-5.4 2.5-8.9 2.5-5.6 0-10.4-2.2-11.4-3.1zm-5.7 19.4l.7-2.7 1-3 .9-3.2c5.9 4 12.1 4.6 15.4 4.6 4.8 0 9-1.3 10.8-3.3.1-.1.1-.2.2-.3.4 1.4 1 3.4 1.7 6v.1l.7 2.3c-3.2 2.9-9.3 4.6-16.4 4.6-6.5 0-12.6-1.6-14.5-3.7-.4-.5-.6-.9-.5-1.4zm42.4 6.2l-23.2 9.4-.4.2s-1.5.9-3.5.9c-1.2 0-2.4-.3-3.6-1L8.3 51.9l-.9-.4-.1-.1c.2-.1.4-.2.7-.3l.3-.1 8-3.6c-.4 1.3-.7 2.5-.9 3.3-.3 1.3 0 2.6.9 3.7 3 3.9 11.8 5.6 18.6 5.6 8.2 0 17.2-2.5 17.7-9.5v-.1l-.9-3.3 8.5 4.2c.3.3.6.6.8.9-.1 0-.2.1-.3.1z"/></svg>