<svg xmlns="http://www.w3.org/2000/svg" viewBox="0 0 68 68"><path fill="#129DED" d="M66.6 55.5L62 50.9c-.1-.1-.1-.2-.1-.3 0-.1 0-.2.1-.2 2.8-4.8 4.4-10.5 4.4-16.4 0-18.1-14.7-32.9-32.9-32.9S.7 15.8.7 33.9s14.7 32.9 32.9 32.9c6.5 0 12.6-1.9 17.7-5.2.1 0 .2-.1.2-.1.1 0 .2 0 .3.1l4.6 4.6c.3.4 1.1.7 1.6.7h8.4c.5 0 .9-.4.9-.9v-8.9c0-.5-.3-1.2-.7-1.6M53.4 33.7c0 10.9-8.8 19.8-19.8 19.8s-19.8-8.8-19.8-19.8 8.8-19.8 19.8-19.8c4.5 0 8.7 1.5 12 4.1l5.9-5.9 3.8 3.8-5.9 5.9c2.5 3.3 4 7.4 4 11.9M45.6 18L34.7 28.9c-.3-.1-.7-.1-1.1-.1-2.7 0-4.9 2.2-4.9 4.9s2.2 4.9 4.9 4.9 4.9-2.2 4.9-4.9c0-.3 0-.6-.1-.8l11-11c-1.1-1.6-2.4-2.8-3.8-3.9m-12 17.6c-1.1 0-2-.9-2-2s.9-2 2-2 2 .9 2 2-.9 2-2 2z"/></svg>